<svg id="visual" viewBox="0 0 900 600" width="900" height="600" xmlns="http://www.w3.org/2000/svg" xmlns:xlink="http://www.w3.org/1999/xlink" version="1.1"><rect x="0" y="0" width="900" height="600" fill="#060303"></rect><path d="M0 424L129 371L257 405L386 447L514 365L643 448L771 432L900 395L900 601L771 601L643 601L514 601L386 601L257 601L129 601L0 601Z" fill="#f5730a"></path><path d="M0 460L129 439L257 411L386 477L514 426L643 413L771 479L900 416L900 601L771 601L643 601L514 601L386 601L257 601L129 601L0 601Z" fill="#e35e08"></path><path d="M0 439L129 468L257 449L386 493L514 461L643 509L771 479L900 465L900 601L771 601L643 601L514 601L386 601L257 601L129 601L0 601Z" fill="#d04a06"></path><path d="M0 539L129 492L257 513L386 537L514 509L643 507L771 513L900 506L900 601L771 601L643 601L514 601L386 601L257 601L129 601L0 601Z" fill="#bd3505"></path><path d="M0 553L129 541L257 558L386 573L514 567L643 526L771 571L900 539L900 601L771 601L643 601L514 601L386 601L257 601L129 601L0 601Z" fill="#a91d04"></path></svg>