<?xml version="1.0" standalone="no"?><svg xmlns="http://www.w3.org/2000/svg" viewBox="0 0 1440 320"><path fill="#0099ff" fill-opacity="1" d="M0,32L21.8,42.7C43.6,53,87,75,131,90.7C174.5,107,218,117,262,144C305.5,171,349,213,393,197.3C436.4,181,480,107,524,101.3C567.3,96,611,160,655,197.3C698.2,235,742,245,785,208C829.1,171,873,85,916,53.3C960,21,1004,43,1047,80C1090.9,117,1135,171,1178,176C1221.8,181,1265,139,1309,128C1352.7,117,1396,139,1418,149.3L1440,160L1440,320L1418.2,320C1396.4,320,1353,320,1309,320C1265.5,320,1222,320,1178,320C1134.5,320,1091,320,1047,320C1003.6,320,960,320,916,320C872.7,320,829,320,785,320C741.8,320,698,320,655,320C610.9,320,567,320,524,320C480,320,436,320,393,320C349.1,320,305,320,262,320C218.2,320,175,320,131,320C87.3,320,44,320,22,320L0,320Z"></path></svg>