<?xml version="1.0" standalone="no"?><svg xmlns="http://www.w3.org/2000/svg" viewBox="0 0 1440 320"><path fill="#0099ff" fill-opacity="1" d="M0,96L8.6,101.3C17.1,107,34,117,51,112C68.6,107,86,85,103,74.7C120,64,137,64,154,58.7C171.4,53,189,43,206,48C222.9,53,240,75,257,106.7C274.3,139,291,181,309,213.3C325.7,245,343,267,360,266.7C377.1,267,394,245,411,245.3C428.6,245,446,267,463,261.3C480,256,497,224,514,213.3C531.4,203,549,213,566,202.7C582.9,192,600,160,617,128C634.3,96,651,64,669,53.3C685.7,43,703,53,720,64C737.1,75,754,85,771,90.7C788.6,96,806,96,823,133.3C840,171,857,245,874,277.3C891.4,309,909,299,926,282.7C942.9,267,960,245,977,218.7C994.3,192,1011,160,1029,170.7C1045.7,181,1063,235,1080,229.3C1097.1,224,1114,160,1131,128C1148.6,96,1166,96,1183,90.7C1200,85,1217,75,1234,80C1251.4,85,1269,107,1286,122.7C1302.9,139,1320,149,1337,160C1354.3,171,1371,181,1389,170.7C1405.7,160,1423,128,1431,112L1440,96L1440,0L1431.4,0C1422.9,0,1406,0,1389,0C1371.4,0,1354,0,1337,0C1320,0,1303,0,1286,0C1268.6,0,1251,0,1234,0C1217.1,0,1200,0,1183,0C1165.7,0,1149,0,1131,0C1114.3,0,1097,0,1080,0C1062.9,0,1046,0,1029,0C1011.4,0,994,0,977,0C960,0,943,0,926,0C908.6,0,891,0,874,0C857.1,0,840,0,823,0C805.7,0,789,0,771,0C754.3,0,737,0,720,0C702.9,0,686,0,669,0C651.4,0,634,0,617,0C600,0,583,0,566,0C548.6,0,531,0,514,0C497.1,0,480,0,463,0C445.7,0,429,0,411,0C394.3,0,377,0,360,0C342.9,0,326,0,309,0C291.4,0,274,0,257,0C240,0,223,0,206,0C188.6,0,171,0,154,0C137.1,0,120,0,103,0C85.7,0,69,0,51,0C34.3,0,17,0,9,0L0,0Z"></path></svg>